<?xml version="1.0" standalone="no"?>
<!DOCTYPE svg PUBLIC "-//W3C//DTD SVG 20010904//EN"
 "http://www.w3.org/TR/2001/REC-SVG-20010904/DTD/svg10.dtd">
<svg version="1.0" xmlns="http://www.w3.org/2000/svg"
 width="16.000000pt" height="16.000000pt" viewBox="0 0 16.000000 16.000000"
 preserveAspectRatio="xMidYMid meet">
<g transform="translate(0.000000,16.000000) scale(0.006154,-0.006154)"
fill="#000000" stroke="none">
<path d="M503 2589 c-68 -9 -185 -45 -247 -76 -61 -31 -156 -124 -185 -180
-111 -219 -82 -482 92 -826 65 -128 176 -310 231 -378 12 -14 32 -41 46 -59
144 -195 431 -472 740 -713 135 -106 505 -357 526 -357 41 0 468 629 615 908
29 53 55 102 59 107 17 24 115 248 147 335 52 144 71 237 72 363 2 128 -13
192 -58 254 -59 82 -184 143 -295 144 -130 2 -242 -55 -359 -180 -85 -93 -133
-166 -207 -315 -57 -113 -60 -118 -70 -92 -5 15 -10 32 -10 37 0 6 -23 72 -51
147 -177 472 -406 746 -714 852 -88 30 -228 42 -332 29z"/>
</g>
</svg>
