<?xml version="1.0" standalone="no"?>
<!DOCTYPE svg PUBLIC "-//W3C//DTD SVG 1.1//EN" "http://www.w3.org/Graphics/SVG/1.1/DTD/svg11.dtd" >
<svg xmlns="http://www.w3.org/2000/svg">
<metadata>
This is a custom SVG webfont generated by Font Squirrel.
Copyright   : free font  wwwtypografskide
</metadata>
<defs>
<font id="webfontG8knkzAa" horiz-adv-x="2048" >
<font-face units-per-em="2048" ascent="1638" descent="-410" />
<missing-glyph horiz-adv-x="880" />
<glyph unicode=" "  horiz-adv-x="880" />
<glyph unicode="&#x09;" horiz-adv-x="880" />
<glyph unicode="&#xa0;" horiz-adv-x="880" />
<glyph unicode="!" horiz-adv-x="591" d="M295 -14v147h57v-147h-57zM295 299v950h57v-950h-57z" />
<glyph unicode="&#x22;" horiz-adv-x="929" d="M436 846v389h62v-389h-62zM739 846v389h62v-389h-62z" />
<glyph unicode="#" horiz-adv-x="1605" d="M377 393v43h307l55 297h-299v41h312l73 402h49l-73 -402h403l74 402h49l-74 -402h275v-41h-289l-53 -297h274v-43h-286l-74 -393h-49l73 393h-405l-72 -393h-51l74 393h-293zM733 436h402l57 297h-404z" />
<glyph unicode="$" horiz-adv-x="1683" d="M348 416h49q20 -195 153.5 -288t401.5 -116v606q-285 45 -401 103q-158 76 -158 223q0 289 559 324v71h49v-73q252 -18 379 -99q145 -90 179 -282h-50q-27 164 -148.5 241.5t-359.5 98.5v-572q96 -16 263 -47q111 -27 174 -57q158 -78 157 -244q0 -303 -594 -338v-149 h-49v151q-287 23 -428 119q-160 109 -176 328zM442 944q0 -184 316 -248q39 -6 194 -32v561q-233 -12 -352 -64q-158 -70 -158 -217zM1001 10q545 37 545 295q0 152 -178 223q-92 37 -367 82v-600z" />
<glyph unicode="%" horiz-adv-x="1947" d="M354 897q0 135 95.5 218t259.5 83q172 0 267 -83t95 -216q0 -127 -94 -209q-100 -88 -268 -88q-172 0 -269 88q-86 80 -86 207zM401 897q0 -109 76 -178q82 -76 232 -76t237 78q78 70 78 176q0 119 -76 186q-82 74 -239 74q-154 0 -234 -76q-74 -67 -74 -184zM504 -59 l1116 1294h59l-1114 -1294h-61zM1137 274q0 135 95 218t261 83q172 0 266 -81.5t94 -219.5q0 -127 -94 -208q-100 -88 -266 -89q-174 0 -270 91q-86 79 -86 206zM1186 274q0 -109 74 -178q84 -76 233 -76q150 0 236 78q78 70 77 176q0 117 -75 185q-82 74 -238 73 q-156 0 -236 -73q-71 -68 -71 -185z" />
<glyph unicode="&#x26;" horiz-adv-x="1732" d="M377 279q0 111 119 210q98 84 327 195q-139 129 -188 190q-57 72 -57 130q0 115 110 178q94 53 234 53q143 0 242.5 -61.5t99.5 -169.5q0 -86 -88 -162q-78 -68 -277 -170l442 -412q49 121 50 223h45q-2 -123 -64 -252l248 -231h-68l-204 193q-215 -221 -494 -222 q-186 0 -326 82q-151 89 -151 226zM420 276q0 -119 143 -196q129 -68 291 -68q256 0 463 213l-461 426q-92 -41 -268 -137q-168 -113 -168 -238zM627 1006q0 -59 94 -164q23 -25 145 -140q152 74 221 123q127 90 127 179q0 84 -85 137t-205 53q-127 0 -212 -52t-85 -136z " />
<glyph unicode="'" horiz-adv-x="681" d="M436 846v389h117v-389h-117z" />
<glyph unicode="(" horiz-adv-x="872" d="M408 487q0 393 301 777h63q-311 -420 -311 -777q0 -375 315 -792h-65q-160 211 -231.5 396t-71.5 396z" />
<glyph unicode=")" horiz-adv-x="878" d="M387 1264h66q162 -213 231 -394q74 -188 74 -399q0 -391 -303 -776h-64q311 416 311 776q0 375 -315 793z" />
<glyph unicode="*" horiz-adv-x="1155" d="M373 1032l14 39l320 -80v248h41v-244l321 76l6 -41l-321 -76l209 -198l-39 -21l-203 207l-205 -201l-37 25l213 190z" />
<glyph unicode="+" horiz-adv-x="1599" d="M365 418v39h573v417h43v-417h575v-39h-575v-418h-43v418h-573z" />
<glyph unicode="," horiz-adv-x="804" d="M254 -170q80 55 80 174v166h90v-166q0 -57 -23 -92q-37 -51 -147 -105v23z" />
<glyph unicode="-" horiz-adv-x="1501" d="M383 418v39h958v-39h-958z" />
<glyph unicode="." horiz-adv-x="722" d="M274 0v170h117v-170h-117z" />
<glyph unicode="/" horiz-adv-x="1218" d="M309 -29l785 1293h53l-787 -1293h-51z" />
<glyph unicode="0" horiz-adv-x="1849" d="M317 588q0 256 132 416q158 193 475 192q317 0 477 -192q131 -160 131 -416t-131 -416q-160 -193 -477 -192q-317 0 -475 192q-132 160 -132 416zM367 588q0 -231 114 -379q143 -188 443 -189q299 0 444 189q115 147 115 379q0 233 -115 381q-145 188 -444 188t-443 -188 q-114 -148 -114 -381z" />
<glyph unicode="1" horiz-adv-x="1849" d="M678 877v36q133 57 244 131l188 132h61v-1176h-59v1118q-303 -202 -434 -241z" />
<glyph unicode="2" horiz-adv-x="1849" d="M383 0q20 141 139 242q61 51 166 106l197 98q92 43 282 150q207 135 207 283q0 129 -112.5 204.5t-315.5 75.5q-229 0 -341.5 -87t-129.5 -269h-49q20 209 152 303q125 90 364 90q215 0 342 -78q139 -84 139 -239q0 -188 -327 -371l-305 -158q-168 -88 -193 -104 q-121 -84 -162 -205h1030v-41h-1083z" />
<glyph unicode="3" horiz-adv-x="1849" d="M360 387h52q14 -367 530 -367q209 0 346 78q150 84 150 226q0 141 -129 217q-121 72 -332 71h-68v41h68q434 0 430 254q-4 248 -455 248q-459 0 -497 -332h-49q35 373 546 373q213 0 346 -66q156 -78 156 -227q0 -84 -55 -153q-72 -90 -211 -119q154 -35 233 -127 q68 -78 68 -176q0 -162 -164 -258q-154 -90 -383 -90q-570 -1 -582 407z" />
<glyph unicode="4" horiz-adv-x="1849" d="M352 305v45l824 826h61v-830h258v-41h-258v-305h-51v305h-834zM403 346h783v776z" />
<glyph unicode="5" horiz-adv-x="1849" d="M369 342h51q16 -176 151 -252q117 -66 347 -65q236 0 376 112q135 106 136 275q0 160 -138 268q-143 113 -370 113q-279 0 -453 -197h-68l148 580h844v-41h-793l-115 -451q164 152 437 152q244 0 400.5 -121t156.5 -303q0 -190 -158 -311t-403 -121q-518 0 -549 362z" />
<glyph unicode="6" horiz-adv-x="1849" d="M358 555q0 262 127 432q158 209 480 209q377 0 475 -272h-45q-61 145 -195 200q-90 37 -237 37q-254 0 -408 -170t-139 -467q78 160 254 234q125 53 264 53q215 0 381 -119q176 -125 176 -305q0 -174 -165 -290.5t-392 -116.5q-154 0 -287 57q-115 49 -182 127 q-107 121 -107 391zM440 387q0 -152 140 -256q141 -111 354 -111t356.5 109t143.5 258q0 150 -140 262q-147 121 -360 121t-356 -121q-138 -112 -138 -262z" />
<glyph unicode="7" horiz-adv-x="1849" d="M414 1135v41h1020v-52q-360 -264 -533 -497q-209 -285 -229 -627h-51q14 313 184 573q168 254 553 562h-944z" />
<glyph unicode="8" horiz-adv-x="1849" d="M340 330q0 256 350 319q-119 8 -198 88q-72 76 -72 162q0 152 147 229q133 68 357 68q223 0 356 -68q150 -78 150 -229q0 -193 -273 -260q166 -25 258 -111t92 -198q0 -174 -174 -267q-156 -84 -409 -83q-254 0 -410 83q-174 93 -174 267zM397 330q0 -156 156 -236 q139 -74 371 -74q231 0 372 74q156 82 156 236q0 152 -166 229q-139 63 -362 64q-219 0 -359 -64q-168 -77 -168 -229zM475 899q0 -233 449 -233q451 0 450 233q0 133 -135 201q-117 57 -315 57q-199 0 -314 -57q-135 -68 -135 -201z" />
<glyph unicode="9" horiz-adv-x="1849" d="M358 791q0 174 168 292q162 113 387 113q154 0 287 -57q115 -49 182 -125q109 -123 109 -328q0 -29 -2 -61q-16 -252 -121 -412q-156 -233 -483 -233q-193 0 -305 57q-119 59 -170 199h51q59 -135 188 -185q86 -33 238 -33q256 0 399 162q156 172 158 506 q-172 -303 -531 -303q-240 0 -397.5 113t-157.5 295zM410 786q0 -150 146 -257t357 -107q205 0 365 129q147 117 145 240q-2 152 -149.5 259t-360.5 107q-211 0 -357 -110.5t-146 -260.5z" />
<glyph unicode=":" horiz-adv-x="759" d="M504 0v172h117v-172h-117zM504 717v172h117v-172h-117z" />
<glyph unicode=";" horiz-adv-x="776" d="M471 -162q82 55 82 166v172h88v-172q0 -59 -25 -96q-37 -51 -145 -105v35zM553 715v174h88v-174h-88z" />
<glyph unicode="&#x3c;" horiz-adv-x="1605" d="M358 416v45l1198 428v-41l-1148 -410l1148 -411v-39z" />
<glyph unicode="=" horiz-adv-x="1556" d="M315 252v27h1192v-27h-1192zM315 596v27h1192v-27h-1192z" />
<glyph unicode="&#x3e;" horiz-adv-x="1595" d="M348 -12v39l1151 411l-1151 410v41l1202 -428v-45z" />
<glyph unicode="?" horiz-adv-x="1443" d="M371 848q12 205 147 310.5t369 105.5q203 0 334 -74q137 -80 137 -213q0 -117 -88 -205q-41 -41 -121 -90q-94 -57 -125 -84q-119 -96 -135 -285h-49q23 223 200 351q39 29 82 55q88 55 123 96q63 70 64 162q0 113 -117 182.5t-305 69.5q-442 0 -465 -381h-51zM838 0v47 h49v-47h-49z" />
<glyph unicode="@" horiz-adv-x="2127" d="M412 610q0 270 249.5 458.5t591.5 188.5q311 0 511 -147t196 -391q-4 -207 -152 -352q-139 -135 -307 -136q-94 0 -143 113q-152 -98 -314 -98q-127 0 -221 80t-94 190q0 168 123 277q133 119 373 118q195 0 311 -135q6 -8 18 23q10 20 19 41l41 2q-78 -154 -209 -447 q-8 -20 -8 -37q0 -41 39 -67q33 -23 67 -23q158 0 285 136.5t129 308.5q2 131 -55.5 239.5t-165.5 165.5q-211 111 -441 111q-336 0 -575 -195q-229 -186 -229 -426q0 -276 235 -440q219 -154 557 -154q530 0 733 256h52q-219 -291 -779 -290q-340 0 -571 149 q-266 172 -266 481zM772 516q0 -86 74 -156q80 -78 207 -77q248 0 340 180l131 272q-92 139 -322 139q-205 0 -321 -104q-109 -98 -109 -254z" />
<glyph unicode="A" horiz-adv-x="1835" d="M317 0l678 1235h64l659 -1235h-57l-217 401h-846l-219 -401h-62zM621 446h798l-391 748z" />
<glyph unicode="B" horiz-adv-x="1779" d="M395 0v1235h723q207 0 334 -76q139 -84 139 -235q0 -78 -65 -158q-84 -104 -230 -127q178 -18 273 -119q76 -80 76 -182q0 -164 -158 -254q-147 -84 -397 -84h-695zM446 45h666q213 0 342 74q137 78 137 217q0 145 -145 219q-127 66 -328 66h-672v-576zM446 666h672 q178 0 300 68.5t122 189.5q0 131 -121 202q-113 66 -301 66h-672v-526z" />
<glyph unicode="C" horiz-adv-x="1878" d="M340 606q0 260 180 443q213 215 602 215q279 0 471 -123q174 -111 222 -283h-50q-51 160 -225 261.5t-418 101.5q-371 0 -567 -215q-158 -170 -158 -400q0 -242 178 -407q195 -182 519 -183q559 0 680 447h49q-141 -492 -729 -492q-330 0 -542 178t-212 457z" />
<glyph unicode="D" horiz-adv-x="1824" d="M424 0v1235h588q297 0 481 -125q233 -160 233 -494q0 -311 -243 -475q-211 -141 -545 -141h-514zM475 45h475q315 0 512 141q213 152 213 430q0 311 -211 457q-170 119 -463 119h-526v-1147z" />
<glyph unicode="E" horiz-adv-x="1529" d="M346 0v1235h1122v-43h-1071v-526h1008v-45h-1008v-576h1082v-45h-1133z" />
<glyph unicode="F" horiz-adv-x="1431" d="M324 0v1235h1050v-43h-997v-526h901v-45h-901v-621h-53z" />
<glyph unicode="G" horiz-adv-x="1961" d="M377 616q0 281 207 461q217 186 573 187q260 0 440 -101q193 -109 267 -319h-49q-66 182 -239 279.5t-419 97.5q-340 0 -541 -181q-188 -170 -188 -432q0 -252 184 -413q201 -178 553 -179q279 0 462 139.5t200 383.5h-543v45h590q0 -141 -55 -267q-80 -182 -293 -274 q-168 -72 -369 -72q-371 0 -582 189q-198 175 -198 456z" />
<glyph unicode="H" horiz-adv-x="1873" d="M436 0v1235h51v-569h1168v569h53v-1235h-53v621h-1168v-621h-51z" />
<glyph unicode="I" horiz-adv-x="645" d="M387 0v1235h51v-1235h-51z" />
<glyph unicode="J" horiz-adv-x="1482" d="M391 309v80h55v-80q0 -141 106.5 -216t297.5 -75q418 0 418 330v887h53v-911q0 -352 -471 -353q-231 0 -350 97q-109 87 -109 241z" />
<glyph unicode="K" horiz-adv-x="1777" d="M377 0v1235h53v-743l1147 743h86l-811 -526l854 -709h-76l-823 684l-377 -248v-436h-53z" />
<glyph unicode="L" horiz-adv-x="1421" d="M319 0v1235h54v-1190h989v-45h-1043z" />
<glyph unicode="M" horiz-adv-x="2166" d="M436 0v1235h78l705 -1184l702 1184h78v-1235h-49v1186l-705 -1186h-53l-705 1186v-1186h-51z" />
<glyph unicode="N" horiz-adv-x="1873" d="M436 0v1235h74l1145 -1184v1184h53v-1235h-74l-1147 1186v-1186h-51z" />
<glyph unicode="O" horiz-adv-x="2035" d="M399 616q0 279 197 457q211 190 571 191q358 0 570 -191q197 -178 196 -457q0 -276 -196 -454q-211 -190 -570 -191q-360 0 -571 191q-197 178 -197 454zM457 616q0 -264 186 -428q193 -172 524 -172q330 0 527 172q186 164 186 428q0 266 -186 433q-197 172 -527 172 q-332 0 -521 -169.5t-189 -435.5z" />
<glyph unicode="P" horiz-adv-x="1585" d="M358 0v1235h684q498 0 498 -338q0 -164 -142.5 -252t-377.5 -88h-608v-557h-54zM412 602h630q205 0 326 80t121 215q0 295 -447 295h-630v-590z" />
<glyph unicode="Q" horiz-adv-x="1980" d="M303 616q0 309 234 488q213 160 532 160t533 -160q233 -178 233 -488q0 -322 -260 -505l219 -162l-47 -31l-219 164q-190 -111 -459 -111q-319 0 -532 160q-234 176 -234 485zM360 616q0 -291 213 -452q195 -147 496 -148q246 0 420 97l-211 151l47 31l211 -154 q248 166 248 475q0 291 -217 457q-197 147 -498 148q-301 0 -496 -148q-213 -164 -213 -457z" />
<glyph unicode="R" horiz-adv-x="1730" d="M412 0v1235h686q252 0 371 -77q126 -81 126 -246q0 -93 -63 -173q-84 -102 -250 -139q184 -25 252 -133q47 -72 47 -209q0 -170 53 -258h-65q-39 102 -39 264t-76 228q-94 84 -364 83h-625v-575h-53zM465 618h620q203 0 326 74q133 78 133 217q0 283 -436 283h-643v-574z " />
<glyph unicode="S" horiz-adv-x="1714" d="M371 401h53q39 -391 602 -391q223 0 375 72q172 82 172 223q0 152 -154.5 212.5t-412.5 103.5q-186 31 -203 34q-115 20 -199 47q-182 57 -182 238q0 158 172 246q156 78 397 78q252 0 383 -70q160 -86 197 -295h-51q-33 182 -172 258q-119 66 -351 66q-190 0 -327 -54 q-193 -74 -193 -231q0 -145 158 -199q84 -29 293 -63q113 -18 338 -66q172 -45 241 -90q113 -74 113 -215q0 -166 -190 -256q-164 -78 -404 -78q-618 0 -655 430z" />
<glyph unicode="T" horiz-adv-x="1755" d="M463 1192v43h1257v-43h-602v-1192h-53v1192h-602z" />
<glyph unicode="U" horiz-adv-x="1800" d="M422 461v774h51v-774q0 -446 565 -447q565 0 566 447v774h53v-774q0 -489 -619 -490q-616 1 -616 490z" />
<glyph unicode="V" horiz-adv-x="1740" d="M309 1235h56l628 -1184l613 1184h53l-639 -1235h-53z" />
<glyph unicode="W" horiz-adv-x="2463" d="M330 1235h53l463 -1186l473 1186h70l479 -1186l459 1186h51l-480 -1235h-61l-485 1186l-473 -1186h-64z" />
<glyph unicode="X" horiz-adv-x="1742" d="M305 0l641 635l-608 600h70l573 -569l575 569h68l-608 -600l635 -635h-66l-604 602l-610 -602h-66z" />
<glyph unicode="Y" horiz-adv-x="1746" d="M295 1235h67l633 -672l637 672h64l-676 -717v-518h-49v518z" />
<glyph unicode="Z" horiz-adv-x="1585" d="M295 0v53l1163 1139h-1100v43h1160v-53l-1166 -1137h1184v-45h-1241z" />
<glyph unicode="[" horiz-adv-x="858" d="M436 -305v1569h324v-43h-260v-1485h260v-41h-324z" />
<glyph unicode="\" horiz-adv-x="1255" d="M315 1264h54l784 -1293h-51z" />
<glyph unicode="]" horiz-adv-x="878" d="M391 -264h260v1485h-260v43h324v-1569h-324v41z" />
<glyph unicode="^" horiz-adv-x="1638" d="M408 391l542 785h47l545 -785h-51l-518 748l-518 -748h-47z" />
<glyph unicode="_" horiz-adv-x="1331" d="M84 -129h1182v-88h-1182v88z" />
<glyph unicode="`" horiz-adv-x="759" d="M324 1264h47l282 -248h-16z" />
<glyph unicode="a" horiz-adv-x="1476" d="M367 262q0 207 217 266q90 25 229 33l234 12q29 2 94 11q125 29 125 121q0 246 -357 245q-180 0 -272 -53q-100 -57 -133 -199h-64q35 162 152 234q111 70 317 69q406 0 406 -282v-512q0 -154 82 -154h22l2 -51h-51q-41 2 -76 39q-25 27 -34 133q-63 -94 -199 -147 q-127 -49 -285 -50q-182 0 -293 74q-116 76 -116 211zM494 117q90 -86 278 -86q236 0 369 108q125 100 125 258v191q-53 -63 -279 -74q-86 -4 -199 -10q-358 -20 -358 -241q0 -87 64 -146z" />
<glyph unicode="b" horiz-adv-x="1628" d="M408 0v1358h49v-627q61 143 225 217q129 57 268 58q240 0 383 -150q137 -145 137 -367q0 -229 -143 -370.5t-377 -141.5q-154 0 -284 64q-152 74 -209 211v-252h-49zM457 489q0 -203 136 -330.5t355 -127.5q229 0 359 143q115 127 114 315q0 182 -106 310 q-129 154 -365 153q-227 0 -360 -125t-133 -338z" />
<glyph unicode="c" horiz-adv-x="1454" d="M358 469q0 231 142 377q154 156 430 155q365 0 459 -333h-48q-92 281 -411 280q-270 0 -406 -160q-109 -129 -108 -319q0 -180 119 -303q133 -139 366 -139q176 0 293 83t154 236h51q-90 -369 -498 -369q-248 0 -395.5 139.5t-147.5 352.5z" />
<glyph unicode="d" horiz-adv-x="1546" d="M322 489q0 -229 143 -370.5t379 -141.5q141 0 276 68q160 78 217 213v-258h49v1358h-49v-627q-63 141 -227 217q-127 57 -266 58q-240 0 -385 -150q-137 -146 -137 -367zM373 489q0 182 106 310q127 154 363 153q229 0 362 -125t133 -338q0 -190 -129 -321 q-137 -137 -364 -137q-229 0 -359 143q-112 127 -112 315z" />
<glyph unicode="e" horiz-adv-x="1351" d="M203 489q0 217 170 369q162 143 370 143q252 0 390.5 -140t142.5 -386h-1012q8 -203 127 -321q127 -123 348 -123q160 0 250 37q125 49 201 188h61q-61 -152 -183 -215.5t-325 -63.5q-268 0 -413 156q-127 137 -127 356zM264 526h946q-14 193 -131 305q-123 117 -327 117 q-180 0 -322 -117q-148 -123 -166 -305z" />
<glyph unicode="f" horiz-adv-x="909" d="M227 924v61h222v201q0 172 256 172q35 0 110 -6v-62q-68 8 -121 8q-90 0 -129 -16q-61 -29 -61 -108v-189h278v-61h-278v-924h-55v924h-222z" />
<glyph unicode="g" horiz-adv-x="1599" d="M385 518q0 213 137 344q143 139 389 139q127 0 248 -55q160 -72 221 -211v244h50v-942q0 -395 -512 -395q-197 0 -306 53q-141 70 -172 239h66q29 -240 412 -239q463 0 462 342v268q-51 -131 -227 -203q-131 -55 -258 -55q-223 0 -363 123q-147 127 -147 348zM436 518 q0 -178 113 -291q123 -127 342 -127q229 0 364 129q125 119 125 301q0 168 -123 291q-131 131 -344 131q-229 0 -360 -135q-117 -121 -117 -299z" />
<glyph unicode="h" horiz-adv-x="1538" d="M436 0v1358h51v-596q61 127 211 192q115 51 238 52q195 0 313 -88q127 -96 127 -269v-649h-51v645q0 147 -113 232q-104 76 -276 75q-215 0 -338 -125q-111 -111 -111 -270v-557h-51z" />
<glyph unicode="i" horiz-adv-x="663" d="M455 0v983h57v-983h-57zM455 1251v107h57v-107h-57z" />
<glyph unicode="j" horiz-adv-x="839" d="M322 -291q158 4 208 25q76 33 76 133v1116h64v-1116q0 -115 -70 -156t-278 -47v45zM606 1245v113h64v-113h-64z" />
<glyph unicode="k" horiz-adv-x="1400" d="M330 0v1358h47v-928l837 555h101l-578 -381l604 -604h-79l-570 571l-315 -206v-365h-47z" />
<glyph unicode="l" horiz-adv-x="575" d="M365 0v1358h59v-1358h-59z" />
<glyph unicode="m" horiz-adv-x="2146" d="M418 0v979h47v-223q41 111 151 172q100 55 226 55q133 0 231 -59q106 -66 125 -176q111 231 395 231q168 0 273.5 -94t105.5 -258v-627h-47v627q0 135 -88 224t-242 89q-158 0 -266 -91t-108 -216v-633h-50v641q0 123 -69 205q-84 98 -252 98q-176 0 -280.5 -102.5 t-104.5 -257.5v-584h-47z" />
<glyph unicode="n" horiz-adv-x="1482" d="M373 0v979h51v-236q35 123 194 199q129 59 252 59q186 0 310 -88q133 -98 133 -268v-645h-51v641q0 147 -113 233q-106 78 -277 78q-207 0 -333 -125q-115 -115 -115 -274v-553h-51z" />
<glyph unicode="o" horiz-adv-x="1531" d="M381 489q0 215 143 359q154 154 408 153q252 0 405 -153q143 -143 144 -359q0 -217 -144 -360q-154 -152 -407 -152q-252 0 -406 152q-143 143 -143 360zM430 489q0 -186 125 -315q139 -145 377 -145q236 0 375 145q125 129 125 315q0 182 -125 314q-141 145 -375 145 q-238 0 -377 -145q-125 -132 -125 -314z" />
<glyph unicode="p" horiz-adv-x="1529" d="M414 -338v1317h51v-262q47 135 209 217q139 68 282 67q238 0 380.5 -141t142.5 -371q0 -223 -138 -364q-143 -152 -385 -152q-139 0 -266 56q-162 70 -225 204v-571h-51zM465 489q0 -213 131 -337.5t360 -124.5q236 0 365 153q109 127 109 309q0 188 -113 316 q-129 141 -356 141q-231 0 -369 -141q-127 -130 -127 -316z" />
<glyph unicode="q" horiz-adv-x="1669" d="M436 489q0 -221 137 -364q143 -152 383 -152q139 0 269 56q162 70 225 204v-571h51v1317h-51v-270q-49 135 -209 219q-141 74 -285 73q-233 0 -376.5 -141.5t-143.5 -370.5zM485 489q0 188 113 318q129 143 356 143q229 0 369 -143q127 -131 127 -318q0 -213 -133 -339.5 t-361 -126.5q-238 0 -364 155q-107 129 -107 311z" />
<glyph unicode="r" horiz-adv-x="1042" d="M383 0v979h55v-217q49 104 213 174q145 59 301 63v-57q-262 -10 -397 -129q-117 -102 -117 -260v-553h-55z" />
<glyph unicode="s" horiz-adv-x="1376" d="M377 313h55q20 -162 133 -227q100 -61 309 -61q129 0 246 53q143 66 144 172q0 131 -205 184l-60 15q-139 25 -417 94q-156 51 -156 207q0 102 94 172q113 80 320 79q193 0 288 -61q111 -72 140 -246h-54q-20 141 -110 200.5t-264 59.5q-184 0 -281 -67q-80 -55 -80 -137 q0 -117 133 -158q86 -27 224 -53q166 -33 223 -47q256 -66 256 -236q0 -129 -128 -204t-313 -75q-238 0 -348 66q-129 77 -149 270z" />
<glyph unicode="t" horiz-adv-x="952" d="M274 924v59h240v303h55v-303h291v-59h-291v-727q0 -88 66 -121q33 -16 104 -17q55 0 115 11v-64q-70 -6 -125 -6q-215 0 -215 190v734h-240z" />
<glyph unicode="u" horiz-adv-x="1447" d="M350 332v645h51v-639q0 -150 113 -229q102 -74 277 -74q215 0 337 121q111 109 111 270v551h49v-977h-49v221q-68 -135 -215 -196q-106 -47 -233 -48q-195 0 -314 89q-127 96 -127 266z" />
<glyph unicode="v" horiz-adv-x="1490" d="M328 977h63l473 -928l439 928h59l-469 -977h-55z" />
<glyph unicode="w" horiz-adv-x="2107" d="M334 977h51l358 -930l371 930h70l368 -930l367 930h51l-389 -977h-55l-375 932l-377 -932h-61z" />
<glyph unicode="x" horiz-adv-x="1495" d="M309 0l492 506l-447 471h76l406 -436l417 436h70l-449 -471l492 -506h-74l-456 471l-453 -471h-74z" />
<glyph unicode="y" horiz-adv-x="1499" d="M326 977h59l485 -914l437 914h55l-569 -1178q-43 -88 -138 -116q-55 -16 -184 -19v60q168 0 221 40q43 33 84 115l64 135z" />
<glyph unicode="z" horiz-adv-x="1376" d="M322 0v63l845 859h-780v55h850v-62l-846 -860h885v-55h-954z" />
<glyph unicode="{" horiz-adv-x="1036" d="M426 463v51q184 61 184 274v285q0 104 42 147.5t149 43.5h129v-43h-125q-80 0 -109.5 -41t-29.5 -138v-282q0 -139 -146 -281q145 -137 146 -280v-279q0 -104 29.5 -144t109.5 -40h125v-41h-129q-106 0 -148.5 45t-42.5 149v281q0 104 -35 166q-40 72 -149 127z" />
<glyph unicode="|" horiz-adv-x="382" d="M246 -29v1293h57v-1293h-57z" />
<glyph unicode="}" horiz-adv-x="1011" d="M397 -264h127q80 0 109 41t29 139v283q0 137 145 280q-145 139 -145 281v278q0 104 -29 143.5t-109 39.5h-127v43h131q106 0 148.5 -45t42.5 -150v-281q0 -104 35 -165q41 -72 149 -127v-52q-184 -61 -184 -274v-285q0 -102 -42 -146t-149 -44h-131v41z" />
<glyph unicode="~" horiz-adv-x="1581" d="M442 362q125 150 238 160q53 4 197 -43q63 -29 223 -90q59 -20 112 -20q88 0 201 149l23 -4q-131 -162 -230 -162q-66 0 -252 78q-176 74 -270 74q-121 0 -223 -148z" />
<glyph unicode="&#xa1;" horiz-adv-x="737" d="M467 -305v930h117v-930h-117zM467 762v176h117v-176h-117z" />
<glyph unicode="&#xa2;" horiz-adv-x="1552" d="M401 489q0 195 123 332q133 150 385 185v161h49v-161q199 -23 306 -95q123 -80 166 -245h-48q-39 125 -137 190.5t-287 91.5v-921q365 49 435 319h51q-47 -180 -170 -270q-113 -84 -316 -107v-200h-49v200q-254 33 -387 185q-121 136 -121 335zM451 489q0 -164 100 -280 q117 -137 358 -182v923q-242 -45 -358 -184q-100 -115 -100 -277z" />
<glyph unicode="&#xa3;" horiz-adv-x="1581" d="M344 12q283 193 283 350q0 106 -70 232h-184v41h145q-156 233 -156 307q0 158 164 244q143 78 367 78q256 0 397 -109q150 -115 140 -330h-50q0 397 -487 398q-199 0 -332 -66q-150 -78 -149 -215q0 -66 63 -162q12 -18 109 -145h370v-41h-327q47 -158 47 -232 q0 -80 -105 -260q205 -6 291 -28l139 -39q84 -23 144 -23q94 0 180 37q70 29 180 107l33 -27q-207 -158 -393 -158q-59 0 -152 25l-151 41q-82 20 -154 20q-133 0 -293 -86z" />
<glyph unicode="&#xa4;" horiz-adv-x="1710" d="M397 588q0 139 131 295l-127 94l37 24l133 -96q199 111 396 111q201 0 399 -111l131 96l35 -24l-127 -94q147 -172 147 -295t-147 -293l127 -94l-35 -27l-131 96q-190 -106 -397 -106q-209 0 -398 106l-133 -96l-37 27l127 94q-131 154 -131 293zM430 588 q0 -160 157.5 -275.5t379.5 -115.5q221 0 378.5 115.5t157.5 275.5t-156.5 275.5t-379.5 115.5q-221 0 -379 -115.5t-158 -275.5z" />
<glyph unicode="&#xa5;" horiz-adv-x="1646" d="M362 1235h58l547 -664l551 664h55l-553 -668h313v-43h-344v-168h344v-43h-344v-313h-47v313h-344v43h344v168h-344v43h317z" />
<glyph unicode="&#xa6;" horiz-adv-x="743" d="M469 -29v502h117v-502h-117zM469 762v502h117v-502h-117z" />
<glyph unicode="&#xa7;" horiz-adv-x="1570" d="M403 604q0 115 226 242q-90 119 -90 184q0 119 131 182q104 51 243 52q362 0 404 -326h-47q-43 283 -361 283q-121 0 -204 -35q-123 -49 -117 -158q6 -96 133 -166q63 -35 233 -103.5t254 -111.5q250 -131 250 -295q0 -102 -244 -235q113 -129 105 -209 q-12 -117 -129 -180q-102 -55 -258 -56q-391 0 -414 344h49q25 -299 365 -301q168 0 262 70q76 55 76 123q0 74 -39 117t-150 100l-419 194q-158 78 -213 148q-46 55 -46 137zM455 592q0 -125 235 -236l443 -209q274 55 274 207q0 86 -74 150q-80 70 -317 180l-309 131 q-252 -63 -252 -223z" />
<glyph unicode="&#xa8;" horiz-adv-x="944" d="M330 1020v141h57v-141h-57zM733 1020v141h60v-141h-60z" />
<glyph unicode="&#xa9;" horiz-adv-x="2207" d="M375 616q0 270 254 459t612 189t612 -188.5t254 -459.5q0 -270 -254 -457.5t-612 -187.5t-612 187.5t-254 457.5zM422 616q0 -250 238.5 -427t580.5 -177t580.5 177.5t238.5 426.5q0 250 -238.5 428.5t-580.5 178.5t-580.5 -178.5t-238.5 -428.5zM758 606q0 176 136 287 t366 111q326 0 423 -267h-47q-82 225 -376 226q-213 0 -338 -103q-117 -98 -117 -252q0 -152 121 -254q129 -106 342 -106q266 0 370 233h45q-129 -274 -415 -274q-229 0 -369.5 112.5t-140.5 286.5z" />
<glyph unicode="&#xaa;" horiz-adv-x="1327" d="M602 762q0 115 121 147q39 10 254 23q8 2 53 6q68 18 68 68q0 143 -195 143q-201 0 -233 -141h-35q35 170 268 170q223 0 223 -158v-281q0 -84 45 -84h13l2 -28h-29q-25 0 -42 18.5t-21 75.5q-74 -109 -265 -109q-227 0 -227 150zM637 760q0 -43 37 -74q49 -43 151 -43 q127 0 205 64q68 55 68 137v96q-27 -31 -154 -39l-108 -6q-199 -10 -199 -135z" />
<glyph unicode="&#xab;" horiz-adv-x="1083" d="M432 453v22l270 238v-58l-215 -190l215 -191v-61zM670 453v22l270 238v-58l-215 -190l215 -191v-61z" />
<glyph unicode="&#xac;" horiz-adv-x="1755" d="M408 592v31h1191v-461h-49v430h-1142z" />
<glyph unicode="&#xad;" horiz-adv-x="880" />
<glyph unicode="&#x2212;" horiz-adv-x="880" />
<glyph unicode="&#xae;" horiz-adv-x="2207" d="M375 616q0 270 254 459t612 189t612 -188.5t254 -459.5q0 -270 -254 -457.5t-612 -187.5t-612 187.5t-254 457.5zM422 616q0 -250 238.5 -427t580.5 -177t580.5 177.5t238.5 426.5q0 250 -238.5 428.5t-580.5 178.5t-580.5 -178.5t-238.5 -428.5zM948 231v748h328 q328 0 330 -203q2 -168 -246 -198l297 -347h-64l-297 344q-47 -2 -73 -2h-228v-342h-47zM995 616h242q123 0 158 7q170 29 170 153q0 123 -133 152q-41 8 -82 10h-78h-277v-322z" />
<glyph unicode="&#xaf;" />
<glyph unicode="&#x2c9;" />
<glyph unicode="&#xb0;" horiz-adv-x="1226" d="M414 950q0 100 102 173t252 73t252 -72.5t102 -173.5q0 -102 -101 -177t-253 -75q-150 0 -252 74t-102 178zM467 950q0 -94 89 -156.5t212 -62.5q127 0 214 62.5t87 156.5q0 90 -86 153.5t-215 63.5q-119 0 -210 -65.5t-91 -151.5z" />
<glyph unicode="&#xb1;" horiz-adv-x="1611" d="M354 0v55h1192v-55h-1192zM354 537v57h572v369h49v-369h571v-57h-571v-369h-49v369h-572z" />
<glyph unicode="&#xb2;" horiz-adv-x="1849" d="M383 0q20 141 139 242q61 51 166 106l197 98q92 43 282 150q207 135 207 283q0 129 -112.5 204.5t-315.5 75.5q-229 0 -341.5 -87t-129.5 -269h-49q20 209 152 303q125 90 364 90q215 0 342 -78q139 -84 139 -239q0 -188 -327 -371l-305 -158q-168 -88 -193 -104 q-121 -84 -162 -205h1030v-41h-1083z" />
<glyph unicode="&#xb3;" horiz-adv-x="1849" d="M360 387h52q14 -367 530 -367q209 0 346 78q150 84 150 226q0 141 -129 217q-121 72 -332 71h-68v41h68q434 0 430 254q-4 248 -455 248q-459 0 -497 -332h-49q35 373 546 373q213 0 346 -66q156 -78 156 -227q0 -84 -55 -153q-72 -90 -211 -119q154 -35 233 -127 q68 -78 68 -176q0 -162 -164 -258q-154 -90 -383 -90q-570 -1 -582 407z" />
<glyph unicode="&#xb4;" horiz-adv-x="804" d="M358 1016l297 248h47l-329 -248h-15z" />
<glyph unicode="&#xb5;" horiz-adv-x="1546" d="M451 -338v1315h49v-643q0 -147 112 -228q104 -76 277 -75q215 0 338 123q111 109 110 268v555h49v-983h-49v162q-150 -109 -254 -150q-92 -35 -194 -35q-160 0 -387 129v-438h-51z" />
<glyph unicode="&#x3bc;" horiz-adv-x="1546" d="M451 -338v1315h49v-643q0 -147 112 -228q104 -76 277 -75q215 0 338 123q111 109 110 268v555h49v-983h-49v162q-150 -109 -254 -150q-92 -35 -194 -35q-160 0 -387 129v-438h-51z" />
<glyph unicode="&#xb6;" horiz-adv-x="880" />
<glyph unicode="&#xb7;" horiz-adv-x="874" d="M479 588q0 39 25 49q10 4 39 8h26q14 -2 19 -2q4 0 18 2h25q27 -4 39 -8q25 -10 24 -49q0 -37 -24 -49q-12 -6 -39 -7h-88q-23 0 -39 7q-25 14 -25 49z" />
<glyph unicode="&#x2219;" horiz-adv-x="874" d="M479 588q0 39 25 49q10 4 39 8h26q14 -2 19 -2q4 0 18 2h25q27 -4 39 -8q25 -10 24 -49q0 -37 -24 -49q-12 -6 -39 -7h-88q-23 0 -39 7q-25 14 -25 49z" />
<glyph unicode="&#xb8;" />
<glyph unicode="&#xb9;" horiz-adv-x="1849" d="M678 877v36q133 57 244 131l188 132h61v-1176h-59v1118q-303 -202 -434 -241z" />
<glyph unicode="&#xba;" horiz-adv-x="1210" d="M348 918q0 115 94 192q104 86 279 86q172 0 274 -86q94 -78 95 -192q0 -115 -95 -195q-102 -88 -276 -88q-172 0 -277 88q-94 80 -94 195zM401 918q0 -98 84 -170q92 -78 236 -78q141 0 231 78q84 72 84 170t-84 169q-90 76 -231 76q-143 0 -236 -76q-84 -71 -84 -169z " />
<glyph unicode="&#xbb;" horiz-adv-x="1081" d="M442 213v61l215 191l-215 190v58l269 -238v-22zM680 213v61l215 191l-215 190v58l268 -238v-22z" />
<glyph unicode="&#xbc;" horiz-adv-x="5076" d="M3580 305v45l824 826h61v-830h258v-41h-258v-305h-51v305h-834zM3631 346h783v776zM2048 -59h-60l1118 1294h60zM678 877v36q133 57 244 131l188 132h61v-1176h-59v1118q-303 -202 -434 -241z" />
<glyph unicode="&#xbd;" horiz-adv-x="5076" d="M3611 0q20 141 139 242q61 51 166 106l197 98q92 43 282 150q207 135 207 283q0 129 -112.5 204.5t-315.5 75.5q-229 0 -341.5 -87t-129.5 -269h-49q20 209 152 303q125 90 364 90q215 0 342 -78q139 -84 139 -239q0 -188 -327 -371l-305 -158q-168 -88 -193 -104 q-121 -84 -162 -205h1030v-41h-1083zM2048 -59h-60l1118 1294h60zM678 877v36q133 57 244 131l188 132h61v-1176h-59v1118q-303 -202 -434 -241z" />
<glyph unicode="&#xbe;" horiz-adv-x="5076" d="M3580 305v45l824 826h61v-830h258v-41h-258v-305h-51v305h-834zM3631 346h783v776zM2048 -59h-60l1118 1294h60zM360 387h52q14 -367 530 -367q209 0 346 78q150 84 150 226q0 141 -129 217q-121 72 -332 71h-68v41h68q434 0 430 254q-4 248 -455 248q-459 0 -497 -332 h-49q35 373 546 373q213 0 346 -66q156 -78 156 -227q0 -84 -55 -153q-72 -90 -211 -119q154 -35 233 -127q68 -78 68 -176q0 -162 -164 -258q-154 -90 -383 -90q-570 -1 -582 407z" />
<glyph unicode="&#xbf;" horiz-adv-x="1406" d="M358 -37q0 98 62 172q43 51 172 139t172 150q53 74 61 201h49q-14 -152 -86 -244q-53 -70 -194 -160q-86 -55 -123 -98q-61 -70 -61 -160q0 -117 116.5 -182.5t304.5 -65.5q442 0 465 375h52q-12 -205 -147.5 -311.5t-369.5 -106.5q-205 0 -333 74q-140 80 -140 217z M831 891v47h50v-47h-50z" />
<glyph unicode="&#xc0;" horiz-adv-x="2072" d="M557 0l678 1235h59l662 -1235h-55l-220 403h-847l-222 -403h-55zM856 446h803l-395 752zM1055 1573h49l282 -250h-16z" />
<glyph unicode="&#xc1;" />
<glyph unicode="&#xc2;" />
<glyph unicode="&#xc3;" horiz-adv-x="2058" d="M561 0l678 1235h61l660 -1235h-53l-219 403h-848l-222 -403h-57zM862 446h803l-395 752zM1026 1350q31 94 92 123q-39 -35 -53 -123h-39zM1118 1473q23 14 53 14q47 0 115 -43l109 -72q49 -27 92 -26q23 0 43 10q-25 -4 -43 -4q-61 0 -158.5 70.5t-157.5 70.5 q-33 0 -53 -20zM1530 1356q43 29 65 123h45q-30 -103 -110 -123z" />
<glyph unicode="&#xc4;" horiz-adv-x="1835" d="M319 0l678 1235h60l659 -1235h-53l-219 403h-848l-219 -403h-58zM618 446h803l-393 752zM799 1329v139h57v-139h-57zM1204 1329v139h58v-139h-58z" />
<glyph unicode="&#xc5;" horiz-adv-x="1835" d="M317 0l678 1235h64l659 -1235h-57l-217 401h-846l-219 -401h-62zM621 446h798l-391 748z" />
<glyph unicode="&#xc6;" horiz-adv-x="2217" d="M264 0l1008 1346h45v-111h901v-43h-903v-528h829v-43h-829v-580h903v-41h-948v471h-602l-349 -471h-55zM694 512h576v752z" />
<glyph unicode="&#xc7;" horiz-adv-x="1878" d="M340 606q0 260 180 443q213 215 602 215q279 0 471 -123q174 -111 222 -283h-50q-51 160 -225 261.5t-418 101.5q-371 0 -567 -215q-158 -170 -158 -400q0 -242 178 -407q195 -182 519 -183q559 0 680 447h49q-141 -492 -729 -492q-330 0 -542 178t-212 457z" />
<glyph unicode="&#xc8;" />
<glyph unicode="&#xc9;" horiz-adv-x="1622" d="M444 0v1235h1125v-41h-1075v-528h1011v-43h-1011v-582h1085v-41h-1135zM911 1323l297 250h45l-327 -250h-15z" />
<glyph unicode="&#xca;" />
<glyph unicode="&#xcb;" />
<glyph unicode="&#xcc;" />
<glyph unicode="&#xcd;" />
<glyph unicode="&#xce;" />
<glyph unicode="&#xcf;" />
<glyph unicode="&#xd1;" horiz-adv-x="1873" d="M436 0v1235h74l1145 -1184v1184h53v-1235h-74l-1147 1186v-1186h-51z" />
<glyph unicode="&#xd2;" />
<glyph unicode="&#xd3;" />
<glyph unicode="&#xd4;" />
<glyph unicode="&#xd5;" horiz-adv-x="2035" d="M399 616q0 279 197 457q211 190 571 191q358 0 570 -191q197 -178 196 -457q0 -276 -196 -454q-211 -190 -570 -191q-360 0 -571 191q-197 178 -197 454zM457 616q0 -264 186 -428q193 -172 524 -172q330 0 527 172q186 164 186 428q0 266 -186 433q-197 172 -527 172 q-332 0 -521 -169.5t-189 -435.5z" />
<glyph unicode="&#xd6;" horiz-adv-x="2252" d="M616 616q0 279 199 457q211 190 569 191q358 0 568 -191q199 -178 198 -457q0 -276 -198 -454q-211 -190 -568 -191q-358 0 -569 191q-199 178 -199 454zM672 616q0 -266 186 -432q195 -172 526 -172q332 0 529 172q188 166 188 432t-188 435q-197 172 -529 172 t-526 -172q-186 -167 -186 -435zM1161 1329v139h60v-139h-60zM1567 1329v139h57v-139h-57z" />
<glyph unicode="&#xd7;" horiz-adv-x="1523" d="M465 111l448 327l-448 326l35 22l448 -325l451 325l35 -22l-453 -326l453 -327l-35 -25l-451 328l-448 -328z" />
<glyph unicode="&#xd8;" horiz-adv-x="2027" d="M391 616q0 279 197 457q211 190 569 191q301 0 545 -168l135 110l41 -24l-139 -113q182 -223 182 -453q0 -276 -197 -454q-209 -190 -567 -191q-301 0 -549 172l-162 -135l-40 23l165 137q-180 227 -180 448zM440 616q-2 -203 168 -417l1065 872q-279 152 -516 152 q-330 0 -526 -172q-189 -167 -191 -435zM639 168q270 -156 518 -156q330 0 526 172q190 166 191 432q0 211 -172 422z" />
<glyph unicode="&#xd9;" />
<glyph unicode="&#xda;" />
<glyph unicode="&#xdb;" />
<glyph unicode="&#xdc;" horiz-adv-x="2004" d="M610 461v774h49v-774q0 -449 572 -449q567 0 567 449v774h49v-774q0 -489 -616 -490q-621 1 -621 490zM1004 1329v139h59v-139h-59zM1409 1329v139h59v-139h-59z" />
<glyph unicode="&#xdd;" horiz-adv-x="1746" d="M989 1387l297 248h47l-329 -248h-15zM295 1235h67l633 -672l637 672h64l-676 -717v-518h-49v518z" />
<glyph unicode="&#xdf;" horiz-adv-x="1511" d="M422 0v932q0 156 135 246q117 78 287 77q180 0 301 -73q127 -80 127 -213q0 -86 -58 -160q-80 -102 -237 -115q215 -25 317 -137q80 -88 80 -207q0 -389 -602 -391v41q555 -4 555 344q0 168 -145 246q-133 72 -410 76v43q455 10 455 262q0 113 -106.5 181.5t-274.5 68.5 q-121 0 -223 -54q-152 -80 -152 -241v-926h-49z" />
<glyph unicode="&#xe0;" horiz-adv-x="1697" d="M578 248q0 207 219 266q90 25 229 33l234 12q29 2 94 10q125 29 125 121q0 260 -357 260q-182 0 -280 -55q-109 -61 -142 -201h-63q66 307 485 307q406 0 406 -282v-512q0 -154 82 -154h24v-51h-53q-39 2 -74 39q-27 29 -37 133q-63 -94 -192 -145.5t-289 -51.5 q-184 0 -295 66q-116 72 -116 205zM641 246q2 -80 66 -137q88 -78 276 -78q233 0 371 114q125 102 125 252v174q-55 -61 -279 -71l-199 -11q-364 -20 -360 -243zM903 1350h49l283 -275h-16z" />
<glyph unicode="&#xe1;" horiz-adv-x="1662" d="M547 248q0 207 217 266q90 25 229 33l234 12q29 2 94 10q125 29 125 121q0 260 -356 260q-182 0 -281 -55q-109 -61 -141 -201h-62q61 307 484 307q406 0 405 -282v-512q0 -154 82 -154h25v-51h-52q-41 2 -75 39q-25 27 -35 133q-63 -94 -199 -147q-127 -49 -285 -50 q-184 0 -292 66q-117 72 -117 205zM610 246q0 -80 64 -137q88 -78 278 -78q231 0 369 114q125 102 125 252v174q-53 -61 -279 -71q-86 -4 -198 -11q-361 -20 -359 -243zM940 1075l297 275h47l-328 -275h-16z" />
<glyph unicode="&#xe2;" horiz-adv-x="1738" d="M616 248q0 207 220 266q90 25 229 33l233 12q29 2 95 10q125 29 125 121q0 260 -357 260q-182 0 -280 -55q-109 -61 -142 -201h-63q66 307 485 307q406 0 406 -282v-512q0 -154 82 -154h24v-51h-53q-39 2 -74 39q-27 29 -37 133q-63 -94 -192 -145.5t-289 -51.5 q-184 0 -295 66q-117 72 -117 205zM680 246q2 -80 65 -137q88 -78 277 -78q233 0 371 114q125 102 125 252v174q-55 -61 -279 -71q-86 -4 -199 -11q-364 -20 -360 -243zM881 1083l249 267h41l250 -267h-28l-246 254l-236 -254h-30z" />
<glyph unicode="&#xe3;" />
<glyph unicode="&#xe4;" horiz-adv-x="1449" d="M324 248q0 207 219 266q90 25 229 33l234 12q29 2 94 10q125 25 125 121q0 260 -357 260q-182 0 -280 -55q-109 -61 -142 -201h-63q66 307 485 307q406 0 406 -282v-512q0 -154 82 -154h24v-51h-53q-39 2 -74 39q-27 29 -36 133q-63 -94 -192.5 -145.5t-289.5 -51.5 q-184 0 -295 66q-116 72 -116 205zM387 246q0 -80 64 -137q90 -78 278 -78q233 0 371 114q125 102 125 252v174q-55 -61 -279 -71l-198 -11q-363 -20 -361 -243zM633 1122v113h57v-113h-57zM1038 1122v113h58v-113h-58z" />
<glyph unicode="&#xe5;" />
<glyph unicode="&#xe6;" horiz-adv-x="2394" d="M375 246q0 209 213 268q68 18 219 31q82 4 225 12q29 2 92 10q121 25 121 123q0 262 -346 262q-340 0 -399 -290h-47q59 340 448 339q141 0 252 -59q145 -80 147 -233q70 147 207 225q119 68 260 67q238 0 369 -140t137 -390h-977q-8 -166 115 -295q133 -141 352 -141 q362 0 449 317q6 0 21.5 -2t23.5 -2q-31 -166 -156 -264q-133 -104 -338 -107q-150 -2 -260 58q-121 66 -227 221q-197 -279 -504 -279q-180 0 -285 66q-112 70 -112 203zM422 246q0 -84 72 -140q92 -72 274 -71q221 0 356 117q119 102 121 245l2 166q-133 -57 -260 -63 q-70 -6 -205 -15q-55 -4 -110 -6q-61 -6 -107 -22q-143 -51 -143 -211zM1294 528h916q-16 195 -131 305.5t-312 110.5q-186 0 -296.5 -98.5t-176.5 -317.5z" />
<glyph unicode="&#xe7;" horiz-adv-x="880" />
<glyph unicode="&#xe8;" horiz-adv-x="1683" d="M537 489q0 217 170 369q162 143 370 143q252 0 389.5 -141t143.5 -389h-1008q8 -199 127 -313q125 -121 344 -121q158 0 248 35q123 51 197 188h67q-59 -154 -186 -219q-119 -63 -324 -64q-268 0 -411 156q-127 137 -127 356zM602 528h934q-12 190 -130 302t-321 112 q-178 0 -319 -115q-146 -121 -164 -299zM932 1350h47l283 -275h-17z" />
<glyph unicode="&#xe9;" horiz-adv-x="1697" d="M545 489q0 217 170 369q162 143 370 143q252 0 389.5 -141t143.5 -389h-1008q8 -197 130 -315.5t341 -118.5q158 0 248 35q123 51 199 188h67q-61 -154 -188 -219q-119 -63 -324 -64q-268 0 -411 156q-127 137 -127 356zM610 528h936q-14 188 -133 301t-319 113 q-178 0 -320 -115q-146 -121 -164 -299zM965 1075l297 275h47l-330 -275h-14z" />
<glyph unicode="&#xea;" horiz-adv-x="1701" d="M391 489q0 217 170 369q162 143 371 143q252 0 389 -141t143 -389h-1009q10 -199 129 -313q125 -121 344 -121q158 0 248 35q123 51 196 188h68q-61 -154 -183 -218.5t-327 -64.5q-268 0 -412 156q-127 137 -127 356zM457 528h934q-12 188 -131 301t-320 113 q-178 0 -319 -115q-148 -121 -164 -299zM684 1083l268 267h41l252 -267h-31l-245 246l-236 -246h-49z" />
<glyph unicode="&#xeb;" horiz-adv-x="1699" d="M387 489q0 217 170 369q162 143 371 143q252 0 393 -143q135 -139 139 -387h-1007q10 -199 129 -313q123 -121 342 -121q158 0 247 35q123 51 199 188h68q-61 -154 -183 -218.5t-327 -64.5q-268 0 -412 156q-129 137 -129 356zM455 528h934q-12 188 -131 301t-320 113 q-180 0 -322 -115q-145 -121 -161 -299zM729 1122v113h59v-113h-59zM1135 1122v113h59v-113h-59z" />
<glyph unicode="&#xec;" d="M-321 1373h47l282 -248h-16z" />
<glyph unicode="&#xed;" d="M-7 1125l297 248h47l-329 -248h-15z" />
<glyph unicode="&#xef;" d="M-231 1124v141h57v-141h-57zM172 1124v141h60v-141h-60z" />
<glyph unicode="&#xf1;" horiz-adv-x="1482" d="M373 0v979h51v-236q35 123 194 199q129 59 252 59q186 0 310 -88q133 -98 133 -268v-645h-51v641q0 147 -113 233q-106 78 -277 78q-207 0 -333 -125q-115 -115 -115 -274v-553h-51z" />
<glyph unicode="&#xf2;" horiz-adv-x="1808" d="M594 489q0 215 143 359q154 154 408 153q252 0 405 -153q143 -143 144 -359q0 -217 -144 -360q-154 -152 -407 -152q-252 0 -406 152q-143 143 -143 360zM643 489q0 -186 125 -315q137 -145 377 -145q236 0 375 145q125 129 125 315q0 182 -125 314q-139 145 -375 145 q-238 0 -377 -145q-125 -130 -125 -314zM969 1350h47l282 -275h-14z" />
<glyph unicode="&#xf3;" horiz-adv-x="1804" d="M590 489q0 215 143 359q154 154 408 153q252 0 405 -153q143 -143 144 -359q0 -217 -144 -360q-154 -152 -407 -152q-252 0 -406 152q-143 143 -143 360zM639 489q0 -186 125 -315q137 -145 377 -145q236 0 372 145q125 129 125 315q0 182 -125 314q-139 145 -372 145 q-238 0 -377 -145q-125 -130 -125 -314zM1001 1075l297 275h45l-327 -275h-15z" />
<glyph unicode="&#xf4;" horiz-adv-x="1810" d="M596 489q0 215 143 359q154 154 408 153q252 0 405 -153q143 -143 144 -359q0 -217 -144 -360q-154 -152 -407 -152q-252 0 -406 152q-143 143 -143 360zM645 489q0 -186 125 -315q137 -145 377 -145q236 0 375 145q125 129 125 315q0 182 -125 314q-141 145 -375 145 q-238 0 -377 -145q-125 -130 -125 -314zM948 1083l248 267h41l252 -267h-31l-246 254l-235 -254h-29z" />
<glyph unicode="&#xf5;" horiz-adv-x="1810" d="M596 489q0 215 143 359q154 154 408 153q252 0 405 -153q143 -143 144 -359q0 -217 -144 -360q-154 -152 -407 -152q-252 0 -406 152q-143 143 -143 360zM645 489q0 -186 125 -315q139 -145 377 -145q236 0 375 145q125 129 125 315q0 182 -125 314q-141 145 -375 145 q-238 0 -377 -145q-125 -132 -125 -314zM934 1104q33 100 94 135q-43 -39 -53 -135h-41zM1028 1239q23 14 51 14q55 0 159.5 -77.5t158.5 -77.5q23 0 43 14q-20 -6 -43 -6q-59 0 -159.5 79t-158.5 79q-26 0 -51 -25zM1440 1112q45 35 63 133h47q-30 -110 -110 -133z" />
<glyph unicode="&#xf6;" horiz-adv-x="1798" d="M584 489q0 215 143 359q154 154 408 153q252 0 405 -153q143 -143 143 -359q0 -217 -143 -360q-154 -152 -407 -152q-252 0 -406 152q-143 143 -143 360zM633 489q0 -186 125 -315q137 -145 377 -145q236 0 374 145q125 129 125 315q0 182 -125 314q-139 145 -374 145 q-238 0 -377 -145q-125 -130 -125 -314zM907 1122v113h58v-113h-58zM1313 1122v113h57v-113h-57z" />
<glyph unicode="&#xf7;" horiz-adv-x="1570" d="M332 418v39h1190v-39h-1190zM829 72q0 33 29 53t70 20t69.5 -21.5t28.5 -51.5q0 -72 -98 -72q-99 0 -99 72zM829 803q0 72 99 71q41 0 69.5 -20t28.5 -51q0 -74 -98 -74q-99 0 -99 74z" />
<glyph unicode="&#xf8;" horiz-adv-x="1617" d="M373 51l141 113q-106 176 -106 325q0 215 143 359q152 154 403 153q205 0 396 -143l104 84l43 -33l-111 -90q111 -178 111 -330q0 -217 -143 -360q-150 -152 -402 -152q-215 0 -403 148l-133 -109zM455 489q0 -104 94 -292l766 634q-215 113 -361 113q-238 0 -374 -143 q-125 -130 -125 -312zM582 154q219 -119 372 -119q233 0 371 141q125 127 125 313q0 115 -102 297z" />
<glyph unicode="&#xf9;" horiz-adv-x="1638" d="M537 332v645h51v-639q0 -150 112 -229q104 -74 277 -74q213 0 338 121q111 109 110 270v551h50v-977h-50v221q-70 -135 -213 -196q-109 -47 -235 -48q-195 0 -313 89q-127 96 -127 266zM920 1350h47l282 -275h-14z" />
<glyph unicode="&#xfa;" horiz-adv-x="1636" d="M537 332v645h51v-639q0 -150 112 -229q102 -74 277 -74q213 0 336 121q111 109 110 270v551h50v-977h-50v221q-68 -135 -213 -196q-106 -47 -233 -48q-195 0 -313 89q-127 96 -127 266zM956 1075l295 275h47l-327 -275h-15z" />
<glyph unicode="&#xfb;" horiz-adv-x="1644" d="M539 332v645h49v-639q0 -150 112 -229q104 -74 277 -74q215 0 338 121q111 109 110 270v551h52v-977h-52v221q-70 -135 -213 -196q-109 -47 -235 -48q-195 0 -311 89q-127 96 -127 266zM756 1083l248 267h38l254 -267h-30l-246 254l-236 -254h-28z" />
<glyph unicode="&#xfc;" horiz-adv-x="1648" d="M541 332v645h51v-639q0 -150 113 -229q104 -74 276 -74q215 0 338 121q111 109 111 270v551h49v-977h-49v221q-70 -135 -213 -196q-109 -47 -236 -48q-195 0 -313 89q-127 96 -127 266zM801 1102v133h57v-133h-57zM1206 1102v133h58v-133h-58z" />
<glyph unicode="&#xfd;" horiz-adv-x="1499" d="M837 1125l297 248h47l-329 -248h-15zM326 977h59l485 -914l437 914h55l-569 -1178q-43 -88 -138 -116q-55 -16 -184 -19v60q168 0 221 40q43 33 84 115l64 135z" />
<glyph unicode="&#xff;" />
<glyph unicode="&#x131;" />
<glyph unicode="&#x152;" horiz-adv-x="2521" d="M317 610q0 279 191 459q207 195 565 195q207 0 451 -123v94h997v-41h-950v-528h839v-43h-839v-582h950v-41h-997v98q-256 -127 -451 -127q-354 0 -561 191q-195 176 -195 448zM362 610q0 -262 191.5 -430t519.5 -168q244 0 451 154v907q-119 84 -217.5 117t-233.5 33 q-324 0 -517.5 -169.5t-193.5 -443.5z" />
<glyph unicode="&#x153;" horiz-adv-x="2412" d="M385 489q0 217 113 355q129 158 374 157q158 0 281 -75q147 -94 180 -277q37 172 178 266q125 84 291 86q238 2 369 -145q117 -133 117 -346v-39h-934q59 -449 450 -448q319 0 420 319h45q-109 -367 -467 -365q-162 0 -290 87.5t-179 230.5q-98 -317 -461 -318 q-242 0 -372 156q-115 139 -115 356zM432 489q0 -190 94 -313q115 -147 340 -147q238 0 353 143q94 119 94 317q0 195 -94 314q-113 147 -347 147q-227 0 -342 -147q-98 -124 -98 -314zM1352 528h878q-25 416 -426 416q-199 0 -303 -100.5t-149 -315.5z" />
<glyph unicode="&#x178;" />
<glyph unicode="&#x2c6;" />
<glyph unicode="&#x2da;" />
<glyph unicode="&#x2dc;" />
<glyph unicode="&#x2000;" horiz-adv-x="839" />
<glyph unicode="&#x2001;" horiz-adv-x="1679" />
<glyph unicode="&#x2002;" horiz-adv-x="839" />
<glyph unicode="&#x2003;" horiz-adv-x="1679" />
<glyph unicode="&#x2004;" horiz-adv-x="559" />
<glyph unicode="&#x2005;" horiz-adv-x="419" />
<glyph unicode="&#x2006;" horiz-adv-x="278" />
<glyph unicode="&#x2007;" horiz-adv-x="278" />
<glyph unicode="&#x2008;" horiz-adv-x="208" />
<glyph unicode="&#x2009;" horiz-adv-x="335" />
<glyph unicode="&#x200a;" horiz-adv-x="92" />
<glyph unicode="&#x2010;" horiz-adv-x="1501" d="M383 418v39h958v-39h-958z" />
<glyph unicode="&#x2011;" horiz-adv-x="1501" d="M383 418v39h958v-39h-958z" />
<glyph unicode="&#x2012;" horiz-adv-x="1501" d="M383 418v39h958v-39h-958z" />
<glyph unicode="&#x2013;" horiz-adv-x="1714" d="M365 418v39h1191v-39h-1191z" />
<glyph unicode="&#x2014;" horiz-adv-x="880" />
<glyph unicode="&#x2018;" horiz-adv-x="745" d="M430 846v201q0 72 23 98q31 41 149 82v-29q-41 -20 -62.5 -50t-21.5 -101v-201h-88z" />
<glyph unicode="&#x2019;" horiz-adv-x="727" d="M408 854v29q76 43 81 110v41v201h89v-201q0 -70 -21 -96q-32 -41 -149 -84z" />
<glyph unicode="&#x201a;" horiz-adv-x="743" d="M416 -170q84 53 84 174v166h88v-166q0 -57 -25 -92q-35 -51 -147 -105v23z" />
<glyph unicode="&#x201c;" horiz-adv-x="978" d="M440 846v203q0 70 19 100q25 39 108 78v-29q-66 -47 -65 -149v-203h-62zM709 846v203q0 72 18 100q23 39 109 78v-29q-68 -45 -68 -149v-203h-59z" />
<glyph unicode="&#x201d;" horiz-adv-x="937" d="M410 854v29q66 47 65 151v201h62v-201q0 -72 -19 -102q-24 -39 -108 -78zM676 854v29q68 45 67 151v201h60v-201q0 -72 -19 -102q-24 -39 -108 -78z" />
<glyph unicode="&#x201e;" horiz-adv-x="968" d="M418 -172q68 55 67 174v168h60v-168q0 -59 -19 -94q-27 -51 -108 -101v21zM684 -172q68 55 68 174v168h59v-168q0 -59 -18 -94q-27 -51 -109 -101v21z" />
<glyph unicode="&#x2022;" horiz-adv-x="1439" d="M426 616q0 129 125 219.5t305 90.5t306 -90.5t126 -219.5q0 -127 -126 -217t-306 -90t-305 90t-125 217z" />
<glyph unicode="&#x2026;" horiz-adv-x="2281" d="M528 0v170h50v-170h-50zM1303 0v170h47v-170h-47zM2077 0v170h47v-170h-47z" />
<glyph unicode="&#x202f;" horiz-adv-x="335" />
<glyph unicode="&#x2039;" horiz-adv-x="874" d="M432 453v22l301 240v-62l-239 -188l239 -191v-63z" />
<glyph unicode="&#x203a;" horiz-adv-x="870" d="M440 211v63l238 191l-238 188v62l301 -240v-22z" />
<glyph unicode="&#x2044;" horiz-adv-x="1378" d="M199 -59h-60l1118 1294h60z" />
<glyph unicode="&#x205f;" horiz-adv-x="419" />
<glyph unicode="&#x2122;" horiz-adv-x="2459" d="M446 1200v35h740v-35h-346v-678h-47v678h-347zM1401 522v713h82l372 -662l373 662h80v-713h-47v684l-383 -684h-47l-381 684v-684h-49z" />
<glyph unicode="&#xe000;" horiz-adv-x="975" d="M0 975h975v-975h-975v975z" />
<glyph unicode="&#xfb01;" horiz-adv-x="1572" d="M1364 0v983h57v-983h-57zM1364 1251v107h57v-107h-57zM227 924v61h222v201q0 172 256 172q35 0 110 -6v-62q-68 8 -121 8q-90 0 -129 -16q-61 -29 -61 -108v-189h278v-61h-278v-924h-55v924h-222z" />
<glyph unicode="&#xfb02;" horiz-adv-x="1484" d="M1274 0v1358h59v-1358h-59zM227 924v61h222v201q0 172 256 172q35 0 110 -6v-62q-68 8 -121 8q-90 0 -129 -16q-61 -29 -61 -108v-189h278v-61h-278v-924h-55v924h-222z" />
<glyph unicode="&#xfb03;" horiz-adv-x="2482" d="M2274 0v983h57v-983h-57zM2274 1251v107h57v-107h-57zM1136 924v61h222v201q0 172 256 172q35 0 110 -6v-62q-68 8 -121 8q-90 0 -129 -16q-61 -29 -61 -108v-189h278v-61h-278v-924h-55v924h-222zM227 924v61h222v201q0 172 256 172q35 0 110 -6v-62q-68 8 -121 8 q-90 0 -129 -16q-61 -29 -61 -108v-189h278v-61h-278v-924h-55v924h-222z" />
<glyph unicode="&#xfb04;" horiz-adv-x="2394" d="M2184 0v1358h59v-1358h-59zM1136 924v61h222v201q0 172 256 172q35 0 110 -6v-62q-68 8 -121 8q-90 0 -129 -16q-61 -29 -61 -108v-189h278v-61h-278v-924h-55v924h-222zM227 924v61h222v201q0 172 256 172q35 0 110 -6v-62q-68 8 -121 8q-90 0 -129 -16 q-61 -29 -61 -108v-189h278v-61h-278v-924h-55v924h-222z" />
</font>
</defs>
</svg>
